<svg xmlns="http://www.w3.org/2000/svg" viewBox="0 0 323.95 201.17">
    <defs>
        <style>.cls-1{fill:#fa5f68;}.cls-2{fill:#e3505f;}.cls-3{fill:#f6cba6;}.cls-4{fill:#dfb396;}</style>
    </defs>
    <title>logo</title>
    <g id="Layer_3" data-name="Layer 3">
        <path class="cls-1"
              d="M346.93,191a53.11,53.11,0,0,0-4.39-11,45.36,45.36,0,0,0-14.32-15.85q-1.15-.79-2.34-1.51c-11.26-6.77-26.39-7.85-37.37-.21C278,169.76,272.63,182.53,272,195c-.63-12.47-6-25.24-16.5-32.53-11-7.63-26.1-6.56-37.37.21-10.32,6.21-17.54,17-20.4,28.68s-1.56,24.21,2.64,35.5C208,247.43,223.86,262.16,241,275a194.86,194.86,0,0,0,31,19c.64.31,4.75-2.41,5.45-2.78q3.29-1.74,6.51-3.62,7.68-4.46,14.94-9.61c10.06-7.14,19.95-14.93,28.43-23.91C343.15,237.36,353.29,214.12,346.93,191Z"
              transform="translate(-86 -157.16)"/>
        <path class="cls-2"
              d="M241,257c-5.61-9.9-13.48-23.77-15-43a93.8,93.8,0,0,1,2-27c2-9.4,4.24-13.64,5-15a41.82,41.82,0,0,1,12.8-13.86c-9.21-2.28-19.46-.39-27.67,4.54-10.32,6.21-17.54,17-20.4,28.68s-1.56,24.21,2.64,35.5C208,247.43,223.86,262.16,241,275a194.86,194.86,0,0,0,31,19A137.58,137.58,0,0,1,241,257Z"
              transform="translate(-86 -157.16)"/>
    </g>
    <g id="Layer_2" data-name="Layer 2">
        <path class="cls-3"
              d="M86,239l36-23c11.75-7.83,22.61-16.79,36.6-20.27,14.63-3.64,29.7-.87,43.55,4.38,15.15,5.75,30.34,11.4,45.51,17.09,7.58,2.84,15.1,5.87,22.64,8.81,7.25,2.82,14.9,5,22,8.23,4.67,2.11,9.12,5.32,11.24,10,2.39,5.25,1.36,11.67-1.83,16.47-4.41,6.63-11.67,8.57-19.25,7.06-4.89-1-9.44-3.1-14.12-4.75l-13-4.58c-6-2.17-12-4.38-18-6.36-8.86-2.91-19.67-9.53-29.2-6-6.39,2.38-10.26,9.76-9.24,16.5,1.58,10.46,11.63,13.79,20.34,16.75q19.27,6.55,38.38,13.55c10.84,4,21.58,9.29,33.36,9.13,15.14-.2,12-2,43-12,15.71-5.09,31.05-11.75,46.9-16.38,3.84-1.12,7.81-2.1,11.79-1.77a19.38,19.38,0,0,1,16.59,14.28c3.86,15.12-9.52,23.84-21.43,28.76-30.76,12.7-61.31,26.42-92.42,38.16a90.74,90.74,0,0,1-13.77,4.11,51,51,0,0,1-22.08,0c-6-1.44-11.77-4.11-17.57-6.14l-59-19.07-27.32-8.83c-5.13-1.66-10.28-3.54-15.65-4.26a37,37,0,0,0-7.8-.09C129,319,123,322,123,322l-3.47-7.79-14.2-31.86Z"
              transform="translate(-86 -157.16)"/>
        <path class="cls-4"
              d="M122.22,232.68c9-7.56,19.35-13.49,29.93-18.69,13.6-6.68,27.79-11.59,42-16.57-11.55-3.38-23.68-4.64-35.54-1.69-14,3.48-24.85,12.44-36.6,20.27L86,239l11.21,25.15c2.95-5.1,6.95-11.81,7.54-12.64A101.92,101.92,0,0,1,122.22,232.68Z"
              transform="translate(-86 -157.16)"/>
        <path class="cls-4"
              d="M334,290c13.87-4.49,27.47-10.22,41.38-14.68q1.07-2.5,2.15-5c1.88-4.34,3.18-8.76,1.78-13.42a17.23,17.23,0,0,0-7.31-9.81c-4.74-2.83-10.69-2.62-15.63-.43-5.3,2.35-7.5,6.75-9.9,11.74l-4.89,10.21L330.84,291Z"
              transform="translate(-86 -157.16)"/>
    </g>
</svg>